<svg xmlns="http://www.w3.org/2000/svg" viewBox="0 0 447.424 447.424"><path d="M301.561 111.524c-.393-.403-39.39-40.942-43.731-95.272a4.5 4.5 0 0 0-4.485-4.142h-13.658C237.718 5.134 231.31 0 223.713 0c-7.598 0-14.005 5.134-15.974 12.11h-13.66a4.498 4.498 0 0 0-4.485 4.142c-4.333 54.219-43.34 94.87-43.731 95.272a4.5 4.5 0 0 0 3.22 7.642H206.8c-1.063 3.591-1.637 7.521-1.637 11.55 0 9.032 2.724 16.927 7.027 21.988V409.6l-16.06 14.629-27.546 14.725a4.501 4.501 0 0 0 2.121 8.469h106.012a4.5 4.5 0 0 0 2.121-8.469l-27.546-14.725-16.06-14.629V152.707c4.305-5.062 7.028-12.957 7.028-21.99 0-4.03-.573-7.959-1.637-11.55h9.403v54.274a4.5 4.5 0 0 0 9 0v-54.274h39.313a4.499 4.499 0 0 0 3.222-7.643zM223.713 9c2.512 0 4.736 1.229 6.122 3.11H217.59c1.387-1.881 3.611-3.11 6.123-3.11zm-64.724 101.166c11.605-14.249 34.555-47.14 39.182-89.057h3.837c-1.183 14.533-6.287 59.592-25.448 89.057h-17.571zm28.121 0c18.314-31.76 22.912-75.253 23.942-89.057h8.159v89.057H187.11zm36.603 39.426c-4.508 0-9.55-8.072-9.55-18.876 0-4.206.755-8.215 2.151-11.55h14.796c1.396 3.335 2.151 7.344 2.151 11.55.001 10.804-5.04 18.876-9.548 18.876zm2.52 8.748v248.749h-5.043V158.34c.824.161 1.664.253 2.523.253a13.18 13.18 0 0 0 2.52-.253zm32.521 280.084H188.67l11.203-5.989h47.678l11.203 5.989zm-21.698-14.989h-26.688l8.064-7.346h10.559l8.065 7.346zm-3.148-313.269h-5.696V21.11h8.159c1.03 13.804 5.628 57.297 23.942 89.057h-26.405zm36.956 0c-19.139-29.434-24.258-74.517-25.446-89.057h3.835c4.627 41.917 27.577 74.807 39.182 89.057h-17.571z"/></svg>