<?xml version="1.0" encoding="utf-8"?>

<!DOCTYPE svg PUBLIC "-//W3C//DTD SVG 1.1//EN" "http://www.w3.org/Graphics/SVG/1.1/DTD/svg11.dtd">
<svg version="1.1" xmlns="http://www.w3.org/2000/svg" xmlns:xlink="http://www.w3.org/1999/xlink" x="0px" y="0px" viewBox="0 0 1000 1000" enable-background="new 0 0 1000 1000" xml:space="preserve">

<g><path d="M638.3,274.1c-14.3-23.2-34-43.4-58.4-56.6c-23.6-13.2-50.6-20.9-80-20.9c-22.4,0-44.1,4.2-63.4,12.8c-19.3,8.1-37.1,20.1-51.8,34.9c-14.7,14.3-26.3,32.1-34.8,51.5c-8.5,20.1-12.7,41.4-12.7,63.5c0,15.1,6.6,28.7,15.9,38.7c10,9.3,23.5,15.9,38.6,15.9c14.7,0,28.6-6.6,38.3-15.9c10-10.1,16.6-23.6,16.6-38.7c0-7.7,1.1-13.9,3.9-20.9c3.1-6.2,6.6-12.4,11.5-17c4.7-4.6,10.9-8.9,17-11.6c6.5-2.3,13.9-4.6,20.9-4.6c14.7,0,28.6,6.6,37.9,16.3c18.5,18.2,21.2,49.6,7.7,71.3c-5.4,7.7-12.7,13.6-19.3,19.8c-19.7,16.7-39.5,33.7-54.9,61.6c-15.5,27.1-25.5,65.1-25.5,121.6c0,14.7,6.2,28.7,16.2,38.7c9.3,9.7,23.2,15.5,37.9,15.5c15,0,29.4-5.8,38.6-15.5c10-10.1,16.2-24,16.2-38.7c0-32.5,5-53.4,13.1-68.1c8.5-14.8,18.5-24,28.6-32.6c9.6-8.5,18.9-16.3,27.4-25.2c8.1-8.9,15.9-18.6,22.1-30.6c5.4-9.3,9.3-20.9,12.3-34.1c6.9-29.1,6.9-62.7-2.3-91.8C651.9,299.6,646.1,285.7,638.3,274.1L638.3,274.1z M500,693L500,693c-14.7,0-28.6,6.2-37.9,15.9c-10,10.1-16.2,23.6-16.2,38.7c0,15.1,6.2,28.7,16.2,38.7c9.3,9.7,23.2,15.9,37.9,15.9c15,0,29.4-6.2,38.6-15.9c10-10.1,16.2-23.6,16.2-38.7c0-15.1-6.2-28.6-16.2-38.7C529.4,699.2,515,693,500,693L500,693z M847.4,154L847.4,154C759.7,65.7,637.6,10.7,502.3,10C365.5,9.2,243.4,64.2,153.8,153.2C64.8,242.3,10,364.7,10,499.4c0,34.1,3.8,67.4,10,99.5c6.9,31.4,16.2,63.1,28.6,91.8c37.5,89.8,101.3,164.2,178.9,216.5c78.4,52.3,171.9,82.5,270.9,82.8c136.1,0.4,258.9-54.6,347.8-143.7c89.6-88.7,143.7-211.4,143.7-347C990,365.1,935.9,243.1,847.4,154L847.4,154z M710.6,817.8L710.6,817.8c-61.5,40.6-134.9,63.5-212.2,62.7c-77.3,0-149.5-23.2-210.2-63.5c-61.1-40.7-109.7-98.7-139.1-168.9c-10.1-22.4-17-46.4-22.4-71.2c-4.6-25.2-7.7-50.8-7.7-77.5c0-104.9,42.5-200.6,112.1-269.5c68.8-69,164.6-111.5,270.5-111.5c76.9,0.8,149.9,24,211,64.7c60.3,40.6,109,98.3,139.1,167.7C871,398,881,449.1,881,499.4c0,51.1-10,101.9-29.4,148.7C821.5,718.6,772.1,777.1,710.6,817.8L710.6,817.8z"/></g>
</svg>
